<svg xmlns="http://www.w3.org/2000/svg" xmlns:xlink="http://www.w3.org/1999/xlink" version="1.1" style="enable-background:new 0 0 512 512;" xml:space="preserve" width="166" height="166"><rect id="backgroundrect" width="100%" height="100%" x="0" y="0" fill="none" stroke="none" class="" style=""/>

















<g class="currentLayer" style=""><title>Layer 1</title><path fill="#04b8b8" fill-opacity="1" stroke="none" stroke-width="1" stroke-dasharray="none" stroke-linejoin="miter" stroke-linecap="butt" stroke-dashoffset="" fill-rule="nonzero" opacity="0.32" marker-start="" marker-mid="" marker-end="" d="M10.38628451558695,82.6979262909976 C10.38628451558695,41.74405947454279 42.881924144643364,8.571427353214382 82.99999776076231,8.571427353214382 C123.11807137688126,8.571427353214382 155.61371100593772,41.74405947454279 155.61371100593772,82.6979262909976 C155.61371100593772,123.65179310745239 123.11807137688126,156.82442522878077 82.99999776076231,156.82442522878077 C42.881924144643364,156.82442522878077 10.38628451558695,123.65179310745239 10.38628451558695,82.6979262909976 z" class="" id="svg_76"/><g class="" id="svg_1" transform="rotate(37.366661071777344 83.00000000000003,79.78573608398438) "><g id="svg_57" class="">
	<rect x="100.21873474121094" y="109.30360412597656" style="fill:#5C546A;" width="6.149558067321777" height="4.919646263122559" id="svg_2"/>
	<path style="fill:#5C546A;" d="M114.97767673448456,106.8437851587604 v-3.689734742162563 c0,-0.6792186704530933 -0.5506929102677622,-1.2299115807208543 -1.2299115807208543,-1.2299115807208543 h-4.919646322883417 v4.919646322883417 H114.97767673448456 z" id="svg_3"/>
	<rect x="100.21873474121094" y="101.92414093017578" style="fill:#5C546A;" width="6.149558067321777" height="4.919646263122559" id="svg_4"/>
	<path style="fill:#5C546A;" d="M91.60935670078833,109.3036083202021 v3.689734742162563 c0,0.6792186704530933 0.5506929102677622,1.2299115807208543 1.2299115807208543,1.2299115807208543 h4.919646322883417 v-4.919646322883417 H91.60935670078833 z" id="svg_5"/>
	<path style="fill:#5C546A;" d="M108.82811883088031,114.22325464308554 h4.919646322883417 c0.6792186704530933,0 1.2299115807208543,-0.5506929102677622 1.2299115807208543,-1.2299115807208543 v-3.689734742162563 h-6.149557903604271 V114.22325464308554 z" id="svg_6"/>
	<path style="fill:#5C546A;" d="M97.75891460439263,101.924138835877 h-4.919646322883417 c-0.6792186704530933,0 -1.2299115807208543,0.5506929102677622 -1.2299115807208543,1.2299115807208543 v3.689734742162563 h6.149557903604271 V101.924138835877 z" id="svg_7"/>
	<polygon style="fill:#888693;" points="91.60941314697266,109.3035888671875 97.75895690917969,109.3035888671875 97.75895690917969,114.22325134277344 100.21879577636719,114.22325134277344 100.21879577636719,109.3035888671875 106.36833953857422,109.3035888671875 106.36833953857422,114.22325134277344 108.82817077636719,114.22325134277344 108.82817077636719,109.3035888671875 114.97772216796875,109.3035888671875 114.97772216796875,106.8437728881836 108.82817077636719,106.8437728881836 108.82817077636719,101.92412567138672 106.36833953857422,101.92412567138672 106.36833953857422,106.8437728881836 100.21879577636719,106.8437728881836 100.21879577636719,101.92412567138672 97.75895690917969,101.92412567138672 97.75895690917969,106.8437728881836 91.60941314697266,106.8437728881836 89.14957427978516,106.8437728881836 89.14957427978516,109.3035888671875 " id="svg_8"/>
	<path style="fill:#5C546A;" d="M74.39059457069641,106.8437851587604 v-3.689734742162563 c0,-0.6792186704530933 -0.5506929102677622,-1.2299115807208543 -1.2299115807208543,-1.2299115807208543 h-4.919646322883417 v4.919646322883417 H74.39059457069641 z" id="svg_9"/>
	<path style="fill:#5C546A;" d="M68.24103666709212,114.22325464308554 h4.919646322883417 c0.6792186704530933,0 1.2299115807208543,-0.5506929102677622 1.2299115807208543,-1.2299115807208543 v-3.689734742162563 h-6.149557903604271 V114.22325464308554 z" id="svg_10"/>
	<path style="fill:#5C546A;" d="M51.02227453700016,109.3036083202021 v3.689734742162563 c0,0.6792186704530933 0.5506929102677622,1.2299115807208543 1.2299115807208543,1.2299115807208543 h4.919646322883417 v-4.919646322883417 H51.02227453700016 z" id="svg_11"/>
	<rect x="59.63165283203125" y="101.92414093017578" style="fill:#5C546A;" width="6.149558067321777" height="4.919646263122559" id="svg_12"/>
	<rect x="59.63165283203125" y="109.30360412597656" style="fill:#5C546A;" width="6.149558067321777" height="4.919646263122559" id="svg_13"/>
	<path style="fill:#5C546A;" d="M57.17183244060442,101.924138835877 H52.25218611772101 c-0.6792186704530933,0 -1.2299115807208543,0.5506929102677622 -1.2299115807208543,1.2299115807208543 v3.689734742162563 h6.149557903604271 V101.924138835877 z" id="svg_14"/>
	<polygon style="fill:#5C546A;" points="80.54020690917969,57.6473274230957 80.54020690917969,61.33706283569336 83.00005340576172,61.33706283569336 85.45982360839844,61.33706283569336 85.45982360839844,57.6473274230957 83.00005340576172,57.6473274230957 " id="svg_15"/>
	<polygon style="fill:#5C546A;" points="83.00005340576172,88.39509582519531 80.54020690917969,88.39509582519531 80.54020690917969,90.85492706298828 83.00005340576172,90.85492706298828 85.45982360839844,90.85492706298828 85.45982360839844,88.39509582519531 83.00005340576172,88.39509582519531 " id="svg_16"/>
	<path style="fill:#B6B8BE;" d="M82.99997563574236,78.55581880218077 c-2.9751561137637466,0 -5.456502727868069,-2.1126806177832482 -6.026259267637006,-4.919646322883417 H73.16068298997551 v8.608766109255622 c0,0.10023779382874992 0.011991637912028532,0.20062932660509208 0.03720482531680659,0.29840729727239795 c-0.02521318740477815,-0.09762423171971811 -0.03720482531680659,-0.19786202554846913 -0.03720482531680659,-0.2979460804296275 H82.99997563574236 v6.149557903604271 h0 h2.4598231614417085 h4.919646322883417 l0,0 c0.5645294155508735,0 1.0557253531012634,-0.3843473689752708 1.1927067554040485,-0.931504283448466 l1.2299115807208543,-4.920261278673778 c0.02521318740477815,-0.09762423171971811 0.03720482531680659,-0.19786202554846913 0.03720482531680659,-0.2979460804296275 h0 h-9.839292645766834 V78.55581880218077 z" id="svg_17"/>
	<path style="fill:#B6B8BE;" d="M82.99997563574236,66.25670299497222 v-4.919646322883417 h-2.4598231614417085 h-1.9506397670232758 c-0.6473947083019398,0 -1.2815678671111306,0.26243238353631076 -1.7392487140868795,0.7207281863024207 L73.88141117627792,65.02679141425138 c-0.4647528385648928,0.4647528385648928 -0.7207281863024207,1.0821684520867616 -0.7207281863024207,1.7392487140868795 V71.17634931785565 h3.813033378129829 C77.5434729078743,68.36938361275547 80.0249732609262,66.25670299497222 82.99997563574236,66.25670299497222 z" id="svg_18"/>
	<path style="fill:#D5D9DE;" d="M88.77640911354544,74.52063264478323 c-0.4138652469125728,1.1302887426824655 -1.1499673279739995,2.105147409351332 -2.0969992451290578,2.813422740898954 c-0.5525377776388489,0.4130965521746203 -1.1767179048546776,0.735640864218662 -1.8507094510897066,0.9451870497839785 c-0.19248116238281604,0.05995818956014184 -0.3891132763505696,0.11053830331728699 -0.5892813861128796,0.1515866023238455 c-0.4003362195246417,0.08194285906552769 -0.814816422227566,0.12498976439075694 -1.239289656523851,0.12498976439075694 v3.689734742162563 h9.839292645766834 c0,-0.0001537389475901112 0,-0.0004612168427703301 0,-0.0006149557903604314 V73.63617247929736 h-3.813033378129829 C88.96458558539574,73.93965316184023 88.88095159790673,74.2351394191084 88.77640911354544,74.52063264478323 z" id="svg_19"/>
	<path style="fill:#D5D9DE;" d="M82.99997563574236,66.25670299497222 c0.4244732342962883,0 0.8391071759468025,0.04304690532522993 1.239289656523851,0.12498976439075694 c0.20016810976231933,0.040894560058968556 0.3968002237300662,0.09162841276370474 0.5892813861128796,0.1515866023238455 c0.6739915462350294,0.2096999245129079 1.2981716734508626,0.53209049760936 1.8507094510897066,0.9451870497839785 c1.0260537362163729,0.7673110874222238 1.8044340278650834,1.8474809331903135 2.1937010431632347,3.099069705521373 c0.05980445061255165,0.19263490133040434 0.11053830331728699,0.3891132763505696 0.1515866023238455,0.5892813861128796 c0.0006149557903604314,0.0030747789518021976 0.001076172633130763,0.006303296851194435 0.001691128423491202,0.009378075802996684 H92.83926828150922 v-4.410462928464983 c0,-0.6569265230525266 -0.2558216087899398,-1.2743421365743952 -0.7207281863024207,-1.7392487140868795 L89.1495335393466,62.057784858391216 c-0.4576808469757487,-0.4581420638185183 -1.0918540057849389,-0.7207281863024207 -1.7392487140868795,-0.7207281863024207 H85.45979879718408 h-2.4598231614417085 V66.25670299497222 z" id="svg_20"/>
	<path style="fill:#5C546A;" d="M49.79236295627931,42.888382961275994 H44.87271663339587 c-0.6792186704530933,0 -1.2299115807208543,0.5506929102677622 -1.2299115807208543,1.2299115807208543 v3.689734742162563 h6.149557903604271 V42.888382961275994 z" id="svg_21"/>
	<rect x="60.861568450927734" y="42.88838195800781" style="fill:#5C546A;" width="6.149558067321777" height="4.919646263122559" id="svg_22"/>
	<rect x="52.2521858215332" y="42.88838195800781" style="fill:#5C546A;" width="6.149558067321777" height="4.919646263122559" id="svg_23"/>
	<path style="fill:#5C546A;" d="M75.62050615141723,47.8080292841594 V44.11829454199685 c0,-0.6792186704530933 -0.5506929102677622,-1.2299115807208543 -1.2299115807208543,-1.2299115807208543 h-4.919646322883417 v4.919646322883417 H75.62050615141723 z" id="svg_24"/>
	<path style="fill:#5C546A;" d="M69.47094824781297,55.187498768484545 h4.919646322883417 c0.6792186704530933,0 1.2299115807208543,-0.5506929102677622 1.2299115807208543,-1.2299115807208543 V50.26785244560112 h-6.149557903604271 V55.187498768484545 z" id="svg_25"/>
	<rect x="60.861568450927734" y="50.267852783203125" style="fill:#5C546A;" width="6.149558067321777" height="4.919646263122559" id="svg_26"/>
	<path style="fill:#5C546A;" d="M43.642805052675016,50.26785244560112 v3.689734742162563 c0,0.6792186704530933 0.5506929102677622,1.2299115807208543 1.2299115807208543,1.2299115807208543 h4.919646322883417 V50.26785244560112 H43.642805052675016 z" id="svg_27"/>
	<rect x="52.2521858215332" y="50.267852783203125" style="fill:#5C546A;" width="6.149558067321777" height="4.919646263122559" id="svg_28"/>
	<polygon style="fill:#888693;" points="75.62053680419922,47.808040618896484 69.47093963623047,47.808040618896484 69.47093963623047,42.88839340209961 67.01111602783203,42.88839340209961 67.01111602783203,47.808040618896484 60.86156463623047,47.808040618896484 60.86156463623047,42.88839340209961 58.40174102783203,42.88839340209961 58.40174102783203,47.808040618896484 52.252174377441406,47.808040618896484 52.252174377441406,42.88839340209961 49.79235076904297,42.88839340209961 49.79235076904297,47.808040618896484 43.642799377441406,47.808040618896484 43.642799377441406,50.26786422729492 49.79235076904297,50.26786422729492 49.79235076904297,55.187503814697266 52.252174377441406,55.187503814697266 52.252174377441406,50.26786422729492 58.40174102783203,50.26786422729492 58.40174102783203,55.187503814697266 60.86156463623047,55.187503814697266 60.86156463623047,50.26786422729492 67.01111602783203,50.26786422729492 67.01111602783203,55.187503814697266 69.47093963623047,55.187503814697266 69.47093963623047,50.26786422729492 75.62053680419922,50.26786422729492 78.08037567138672,50.26786422729492 78.08037567138672,47.808040618896484 " id="svg_29"/>
	<path style="fill:#5C546A;" d="M96.52900302367175,42.888382961275994 h-4.919646322883417 c-0.6792186704530933,0 -1.2299115807208543,0.5506929102677622 -1.2299115807208543,1.2299115807208543 v3.689734742162563 h6.149557903604271 V42.888382961275994 z" id="svg_30"/>
	<rect x="98.98883056640625" y="50.267852783203125" style="fill:#5C546A;" width="6.149558067321777" height="4.919646263122559" id="svg_31"/>
	<rect x="107.59820556640625" y="42.88838195800781" style="fill:#5C546A;" width="6.149558067321777" height="4.919646263122559" id="svg_32"/>
	<rect x="98.98883056640625" y="42.88838195800781" style="fill:#5C546A;" width="6.149558067321777" height="4.919646263122559" id="svg_33"/>
	<rect x="107.59820556640625" y="50.267852783203125" style="fill:#5C546A;" width="6.149558067321777" height="4.919646263122559" id="svg_34"/>
	<path style="fill:#5C546A;" d="M121.12723463808884,42.888382961275994 h-4.919646322883417 v4.919646322883417 h6.149557903604271 V44.11829454199685 C122.3571462188097,43.439075871543764 121.80645330854193,42.888382961275994 121.12723463808884,42.888382961275994 z" id="svg_35"/>
	<path style="fill:#5C546A;" d="M116.20758831520541,55.187498768484545 h4.919646322883417 c0.6792186704530933,0 1.2299115807208543,-0.5506929102677622 1.2299115807208543,-1.2299115807208543 V50.26785244560112 h-6.149557903604271 V55.187498768484545 z" id="svg_36"/>
	<path style="fill:#5C546A;" d="M90.3794451200675,50.26785244560112 v3.689734742162563 c0,0.6792186704530933 0.5506929102677622,1.2299115807208543 1.2299115807208543,1.2299115807208543 h4.919646322883417 V50.26785244560112 H90.3794451200675 z" id="svg_37"/>
	<polygon style="fill:#888693;" points="116.20763397216797,42.88839340209961 113.747802734375,42.88839340209961 113.747802734375,47.808040618896484 107.59825897216797,47.808040618896484 107.59825897216797,42.88839340209961 105.13844299316406,42.88839340209961 105.13844299316406,47.808040618896484 98.98887634277344,47.808040618896484 98.98887634277344,42.88839340209961 96.52906036376953,42.88839340209961 96.52906036376953,47.808040618896484 90.3794937133789,47.808040618896484 87.91968536376953,47.808040618896484 87.91968536376953,50.26786422729492 90.3794937133789,50.26786422729492 96.52906036376953,50.26786422729492 96.52906036376953,55.187503814697266 98.98887634277344,55.187503814697266 98.98887634277344,50.26786422729492 105.13844299316406,50.26786422729492 105.13844299316406,55.187503814697266 107.59825897216797,55.187503814697266 107.59825897216797,50.26786422729492 113.747802734375,50.26786422729492 113.747802734375,55.187503814697266 116.20763397216797,55.187503814697266 116.20763397216797,50.26786422729492 122.3572006225586,50.26786422729492 122.3572006225586,47.808040618896484 116.20763397216797,47.808040618896484 " id="svg_38"/>
	<path style="fill:#D5D9DE;" d="M82.99997563574236,45.34820612271771 v12.299115807208542 h3.689734742162563 c0.6792186704530933,0 1.2299115807208543,-0.5506929102677622 1.2299115807208543,-1.2299115807208543 V50.26785244560112 V47.8080292841594 V45.34820612271771 H82.99997563574236 z" id="svg_39"/>
	<path style="fill:#D5D9DE;" d="M85.45979879718408,40.42855979983428 h-2.4598231614417085 v2.4598231614417085 h4.919646322883417 C87.91962195862578,41.529945620369816 86.81838987703787,40.42855979983428 85.45979879718408,40.42855979983428 z" id="svg_40"/>
	<path style="fill:#888693;" d="M82.99997563574236,90.85493460938929 h-2.4598231614417085 c-0.5008814912485646,0 -0.9524127803207112,0.3039418993856423 -1.1398205574330462,0.768694737950535 l-2.1740224578717005,5.3808631656537385 H82.99997563574236 V90.85493460938929 z" id="svg_41"/>
	<path style="fill:#888693;" d="M82.99997563574236,101.924138835877 v-2.4598231614417085 h-6.149557903604271 v7.379469484325126 h-2.4598231614417085 h-6.149557903604271 v-4.919646322883417 h-2.4598231614417085 v4.919646322883417 h-6.149557903604271 v-4.919646322883417 H57.17183244060442 v4.919646322883417 H51.02227453700016 v2.4598231614417085 h6.149557903604271 v4.919646322883417 h2.4598231614417085 v-4.919646322883417 h6.149557903604271 v4.919646322883417 h2.4598231614417085 v-4.919646322883417 h6.149557903604271 h2.4598231614417085 v7.379469484325126 c0,1.3565924735351023 1.1038456436969668,2.4598231614417085 2.4598231614417085,2.4598231614417085 h2.4598231614417085 V103.15405041659785 C81.7700640550215,102.47483174614477 82.32075696528926,101.924138835877 82.99997563574236,101.924138835877 z" id="svg_42"/>
	<path style="fill:#B6B8BE;" d="M82.99997563574236,40.42855979983428 h-2.4598231614417085 c-1.3584373409061836,0 -2.4598231614417085,1.101232081587935 -2.4598231614417085,2.4598231614417085 h4.919646322883417 V40.42855979983428 z" id="svg_43"/>
	<path style="fill:#B6B8BE;" d="M82.99997563574236,45.34820612271771 h-4.919646322883417 v2.4598231614417085 v2.4598231614417085 v6.149557903604271 c0,0.6792186704530933 0.5506929102677622,1.2299115807208543 1.2299115807208543,1.2299115807208543 h1.2299115807208543 h2.4598231614417085 V45.34820612271771 z" id="svg_44"/>
	<rect x="78.08032989501953" y="42.88838195800781" style="fill:#888693;" width="4.919646263122559" height="2.4598231315612793" id="svg_45"/>
	<rect x="82.9999771118164" y="42.88838195800781" style="fill:#B6B8BE;" width="4.919646263122559" height="2.4598231315612793" id="svg_46"/>
	<path style="fill:#888693;" d="M84.23926529226621,78.43082903779002 c0.20016810976231933,-0.040894560058968556 0.3968002237300662,-0.09162841276370474 0.5892813861128796,-0.1515866023238455 C84.63606551599631,78.33920062502631 84.43943340202853,78.38993447773103 84.23926529226621,78.43082903779002 z" id="svg_47"/>
	<path style="fill:#FFCF00;" d="M80.39087195619068,69.7973109579724 C79.72318370680685,70.46499920735623 79.31024089357979,71.38743289289687 79.31024089357979,72.4062608985765 c0,2.0378097503068666 1.6519249918556977,3.689734742162563 3.689734742162563,3.689734742162563 c1.0188280056796377,0 1.9412616912202791,-0.4129428132270271 2.6089499406041137,-1.0806310626108608 L80.39087195619068,69.7973109579724 z" id="svg_48"/>
	<path style="fill:#888693;" d="M82.99997563574236,82.24555354434332 h-9.839138906819246 c0,0.1000840548811598 0.011991637912028532,0.20016810976231933 0.03720482531680659,0.2979460804296275 l1.2299115807208543,4.920261278673778 C74.564780798316,88.01076407897234 75.05597673586637,88.39511144794758 75.62050615141723,88.39511144794758 h4.919646322883417 h2.4598231614417085 V82.24555354434332 z" id="svg_49"/>
	<path style="fill:#B6B8BE;" d="M82.99997563574236,101.924138835877 c0.6792186704530933,0 1.2299115807208543,0.5506929102677622 1.2299115807208543,1.2299115807208543 v15.988850549371106 h2.4598231614417085 c1.3559775177447424,0 2.4598231614417085,-1.1032306879066065 2.4598231614417085,-2.4598231614417085 v-7.379469484325126 v-2.4598231614417085 v-7.379469484325126 h-6.149557903604271 V101.924138835877 z" id="svg_50"/>
	<path style="fill:#B6B8BE;" d="M82.99997563574236,97.00449251299358 h5.77366617674646 l0.18602412658403233,0.46060188697996307 c-0.008455642117455944,-0.023983275824057095 -0.016757545287321884,-0.04750533480534373 -0.026443098985498997,-0.07087365483903979 L86.5996193546171,91.62362934733984 c-0.18740777711234438,-0.4647528385648928 -0.638939066184485,-0.768694737950535 -1.1398205574330462,-0.768694737950535 h-2.4598231614417085 V97.00449251299358 z" id="svg_51"/>
	<path style="fill:#5C546A;" d="M82.99997563574236,97.00449251299358 h-5.77366617674646 l0,0 l-0.18602412658403233,0.46060188697996307 c-0.12606593702388785,0.3758917268578175 -0.1897138613261947,0.7693096937408954 -0.1897138613261947,1.1687234795799921 V99.46431567443528 h6.149557903604271 V97.00449251299358 z" id="svg_52"/>
	<path style="fill:#888693;" d="M82.99997563574236,97.00449251299358 v2.4598231614417085 h6.149557903604271 v-0.8304977948817565 c0,-0.3994137858391039 -0.06364792430230425,-0.7926780137745925 -0.1897138613261947,-1.1687234795799921 l-0.18602412658403233,-0.46060188697996307 H82.99997563574236 z" id="svg_53"/>
	<path style="fill:#D5D9DE;" d="M82.99997563574236,101.924138835877 c-0.6792186704530933,0 -1.2299115807208543,0.5506929102677622 -1.2299115807208543,1.2299115807208543 v15.988850549371106 h1.2299115807208543 h1.2299115807208543 V103.15405041659785 C84.22988721646323,102.47483174614477 83.67919430619546,101.924138835877 82.99997563574236,101.924138835877 z" id="svg_54"/>
	<path style="fill:#FFEDB9;" d="M80.8534724494893,69.40619907530315 c-0.05534602113243863,0.039664648478248535 -0.1094621306841571,0.080559208537217 -0.16250206760274474,0.12314489701967675 c-0.01967858529153376,0.01583511160178104 -0.03935717058306751,0.0315164842559725 -0.05872827797942146,0.04781281270052381 c-0.083480248541429,0.06995122115349872 -0.16434693497382605,0.1432846991539797 -0.24137014771647067,0.22030791189662524 l5.218053620155815,5.218053620155815 c0.667688249383835,-0.667688249383835 1.080784801558452,-1.5901219349244764 1.080784801558452,-2.609103679551702 c0,-0.06364792430230425 -0.001691128423491202,-0.1269883707094286 -0.004765907375293321,-0.18986760027378508 c-0.09562562540104771,-1.8866843648257912 -1.6084168696876973,-3.3994756091124403 -3.4951012345134878,-3.4951012345134878 C83.1269640064518,68.71806354588983 83.06362356004465,68.71652615641392 82.99997563574236,68.71652615641392 c-0.2547454361568068,0 -0.5034950533576,0.025828143195138438 -0.7436352894933471,0.0750246064239733 C81.74131487182214,68.89686194193715 81.26595404587353,69.11055907908738 80.8534724494893,69.40619907530315 z" id="svg_55"/>
	<path style="fill:#B6B8BE;" d="M89.02454377495586,71.16697124205265 c-0.040894560058968556,-0.20016810976231933 -0.09162841276370474,-0.3968002237300662 -0.1515866023238455,-0.5892813861128796 c-0.3892670152981578,-1.2515887723310595 -1.1676473069468611,-2.3319123570467397 -2.1937010431632347,-3.099069705521373 c-0.5525377776388489,-0.41325029112221145 -1.1767179048546776,-0.735640864218662 -1.8507094510897066,-0.9451870497839785 c-0.19248116238281604,-0.05980445061255165 -0.3891132763505696,-0.11053830331728699 -0.5892813861128796,-0.1515866023238455 c-0.4003362195246417,-0.08194285906552769 -0.814816422227566,-0.12498976439075694 -1.239289656523851,-0.12498976439075694 v2.4598231614417085 c0.06364792430230425,0 0.1269883707094286,0.0015373894759010904 0.18986760027378508,0.004765907375293321 c1.8866843648257912,0.09562562540104771 3.3994756091124403,1.6084168696876973 3.4951012345134878,3.4951012345134878 c0.003228517899392251,0.06287922956435378 0.004765907375293321,0.12621967597147793 0.004765907375293321,0.18986760027378508 c0,1.0188280056796377 -0.4130965521746203,1.9412616912202791 -1.080784801558452,2.609103679551702 C84.94139106591024,75.68305282751203 84.01895738036956,76.09599564073906 82.99997563574236,76.09599564073906 v2.4598231614417085 c0.4244732342962883,0 0.8391071759468025,-0.04304690532522993 1.239289656523851,-0.12498976439075694 c0.20016810976231933,-0.040894560058968556 0.3968002237300662,-0.09162841276370474 0.5892813861128796,-0.1515866023238455 c0.6739915462350294,-0.2096999245129079 1.2981716734508626,-0.53209049760936 1.8507094510897066,-0.9451870497839785 c0.9470319171550586,-0.7082753315476226 1.6831339982164897,-1.6831339982164897 2.0969992451290578,-2.813422740898954 c0.10454248436127288,-0.2854932256748303 0.18833021079788353,-0.5809794829430142 0.2498257898339258,-0.8844601654858842 l0,0 H92.83926828150922 v-2.4598231614417085 h-3.813033378129829 C89.02561994758899,71.17327453890383 89.02531246969383,71.17004602100445 89.02454377495586,71.16697124205265 z" id="svg_56"/>
</g><path style="fill:#888693;" d="M80.63224210390709,69.57700304607577 c0.01937110739635404,-0.016142589496961242 0.03904969268788728,-0.03197770109874229 0.05872827797942146,-0.04781281270052381 c0.0528861979709979,-0.04258568848246015 0.10715604647030533,-0.083480248541429 0.16250206760274474,-0.12314489701967675 c0.4124815963842623,-0.2956399962157758 0.8878424223328677,-0.5091833944184365 1.4028678967597248,-0.614648312465248 c0.24014023613574703,-0.04919646322883482 0.4888898533365399,-0.0750246064239733 0.7436352894933471,-0.0750246064239733 v-2.4598231614417085 c-2.9751561137637466,0 -5.456502727868069,2.1126806177832482 -6.026259267637006,4.919646322883417 H73.16068298997551 v2.4598231614417085 h3.813033378129829 c0.5697565397689355,2.8069657051001706 3.0512568928208497,4.919646322883417 6.026259267637006,4.919646322883417 v-2.4598231614417085 c-2.0378097503068666,0 -3.689734742162563,-1.6519249918556977 -3.689734742162563,-3.689734742162563 c0,-1.0188280056796377 0.4129428132270271,-1.9412616912202791 1.0806310626108608,-2.6089499406041137 C80.4678951689333,69.72028774522974 80.5487618553657,69.64695426722926 80.63224210390709,69.57700304607577 z" id="svg_58" class=""/><g id="svg_59" class="">
</g><g id="svg_60" class="">
</g><g id="svg_61" class="">
</g><g id="svg_62" class="">
</g><g id="svg_63" class="">
</g><g id="svg_64" class="">
</g><g id="svg_65" class="">
</g><g id="svg_66" class="">
</g><g id="svg_67" class="">
</g><g id="svg_68" class="">
</g><g id="svg_69" class="">
</g><g id="svg_70" class="">
</g><g id="svg_71" class="">
</g><g id="svg_72" class="">
</g><g id="svg_73" class="">
</g></g></g></svg>